<svg width="132" height="113" viewBox="0 0 132 113" fill="none" xmlns="http://www.w3.org/2000/svg">
<path d="M77.1968 62.8598C72.4724 62.8598 68.4567 61.0202 65.1496 57.3412C61.8426 53.6621 60.189 49.1947 60.189 43.9389C60.189 38.6831 61.8426 34.2157 65.1496 30.5367C68.4567 26.8576 72.4724 25.0181 77.1968 25.0181C81.9212 25.0181 85.9369 26.8576 89.2439 30.5367C92.551 34.2157 94.2045 38.6831 94.2045 43.9389C94.2045 49.1947 92.551 53.6621 89.2439 57.3412C85.9369 61.0202 81.9212 62.8598 77.1968 62.8598ZM37.4652 87.9299C33.3258 87.9299 29.8023 86.3132 26.8949 83.0798C23.9885 79.8454 22.5353 75.9257 22.5353 71.3205V16.6078C22.5353 12.0405 23.9885 8.13071 26.8949 4.87842C29.8023 1.62614 33.3258 0 37.4652 0H117.165C121.245 0 124.737 1.62614 127.642 4.87842C130.547 8.13071 132 12.0405 132 16.6078V71.3205C132 75.9257 130.547 79.8454 127.642 83.0798C124.737 86.3132 121.245 87.9299 117.165 87.9299H37.4652ZM48.8505 73.3703H105.685C105.685 69.2708 106.968 65.7936 109.536 62.9386C112.102 60.0826 115.228 58.6546 118.913 58.6546V29.2217C115.228 29.2217 112.102 27.7763 109.536 24.8856C106.968 21.995 105.685 18.5351 105.685 14.506H48.8505C48.8505 18.5351 47.5669 21.995 44.9997 24.8856C42.4334 27.7763 39.3078 29.2217 35.6227 29.2217V58.6546C39.3078 58.6546 42.4334 60.0826 44.9997 62.9386C47.5669 65.7936 48.8505 69.2708 48.8505 73.3703ZM111.354 113H14.835C10.755 113 7.26278 111.384 4.35824 108.152C1.45275 104.92 0 101.035 0 96.4963V26.9622H14.835V96.4963H111.354V113Z" fill="#636363"/>
</svg>
