<svg width="127" height="102" viewBox="0 0 127 102" fill="none" xmlns="http://www.w3.org/2000/svg">
<path d="M127 15.4229V86.6752C127 90.9406 125.484 94.5614 122.452 97.5374C119.42 100.512 115.73 102 111.384 102H15.5172C11.1982 102 7.53201 100.512 4.51861 97.5374C1.5062 94.5614 0 90.9406 0 86.6752V15.4229C0 11.1301 1.5062 7.48647 4.51861 4.49188C7.53201 1.49729 11.1982 0 15.5172 0H111.384C115.73 0 119.42 1.49729 122.452 4.49188C125.484 7.48647 127 11.1301 127 15.4229ZM15.5172 28.1606H111.384V15.4229H15.5172V28.1606ZM15.5172 48.5601V86.6752H111.384V48.5601H15.5172Z" fill="#636363"/>
</svg>
