<svg width="125" height="129" viewBox="0 0 125 129" fill="none" xmlns="http://www.w3.org/2000/svg">
<path d="M11.9048 19.35H59.5238V12.9H11.9048V19.35ZM11.9048 129C8.63095 129 5.82837 127.737 3.49702 125.211C1.16567 122.684 0 119.647 0 116.1V12.9C0 9.3525 1.16567 6.31562 3.49702 3.78937C5.82837 1.26312 8.63095 0 11.9048 0H59.5238C62.7976 0 65.6002 1.26312 67.9315 3.78937C70.2629 6.31562 71.4286 9.3525 71.4286 12.9V37.7325C69.1468 39.0225 67.0139 40.5006 65.0298 42.1669C63.0456 43.8331 61.2103 45.6875 59.5238 47.73V32.25H11.9048V96.75H50.1488C50.9425 99.115 51.8601 101.372 52.9018 103.522C53.9435 105.673 55.1587 107.715 56.5476 109.65H11.9048V116.1H59.5238V113.52C61.0119 115.347 62.5992 117.014 64.2857 118.519C65.9722 120.024 67.8075 121.367 69.7917 122.55C68.7004 124.485 67.2867 126.044 65.5506 127.226C63.8145 128.409 61.8056 129 59.5238 129H11.9048ZM92.2619 103.2C98.0159 103.2 102.927 100.996 106.994 96.5887C111.062 92.1812 113.095 86.86 113.095 80.625C113.095 74.39 111.062 69.0687 106.994 64.6612C102.927 60.2537 98.0159 58.05 92.2619 58.05C86.5079 58.05 81.5972 60.2537 77.5298 64.6612C73.4623 69.0687 71.4286 74.39 71.4286 80.625C71.4286 86.86 73.4623 92.1812 77.5298 96.5887C81.5972 100.996 86.5079 103.2 92.2619 103.2ZM77.381 129V112.23C72.0238 109.327 67.7083 105.081 64.4345 99.4912C61.1607 93.9012 59.5238 87.6125 59.5238 80.625C59.5238 73.6375 61.1607 67.3487 64.4345 61.7587C67.7083 56.1687 72.0238 51.9225 77.381 49.02V32.25H107.143V49.02C112.5 51.9225 116.815 56.1687 120.089 61.7587C123.363 67.3487 125 73.6375 125 80.625C125 87.6125 123.363 93.9012 120.089 99.4912C116.815 105.081 112.5 109.327 107.143 112.23V129H77.381Z" fill="#636363"/>
</svg>
