<svg width="38" height="38" viewBox="0 0 38 38" fill="none" xmlns="http://www.w3.org/2000/svg">
<g clip-path="url(#clip0_729_151)">
<path d="M11.131 0.133126C9.10939 0.228506 7.72885 0.551126 6.52197 1.02537C5.27291 1.51215 4.21423 2.16537 3.16087 3.22253C2.10751 4.27969 1.45885 5.33913 0.975491 6.59009C0.507711 7.79963 0.190791 9.18131 0.101491 11.204C0.0121908 13.2268 -0.00756919 13.877 0.00231081 19.0366C0.0121908 24.1962 0.0349908 24.843 0.133031 26.8699C0.229551 28.8911 0.551031 30.2713 1.02527 31.4786C1.51281 32.7276 2.16527 33.7859 3.22281 34.8397C4.28035 35.8934 5.33903 36.5405 6.59303 37.0247C7.80143 37.4917 9.18349 37.8101 11.2059 37.8987C13.2282 37.9872 13.8792 38.0077 19.0373 37.9978C24.1954 37.988 24.8448 37.9652 26.8713 37.869C28.8979 37.7729 30.2708 37.4491 31.4785 36.9772C32.7275 36.4885 33.7866 35.8372 34.8396 34.7792C35.8926 33.7213 36.5408 32.6611 37.0238 31.4094C37.492 30.201 37.81 28.8189 37.8978 26.7981C37.9863 24.77 38.0072 24.1225 37.9974 18.9636C37.9875 13.8048 37.9643 13.158 37.8682 11.1318C37.772 9.10569 37.4502 7.72971 36.9763 6.52169C36.488 5.27263 35.8363 4.21509 34.7791 3.16059C33.722 2.10609 32.661 1.45819 31.4097 0.976346C30.2005 0.508566 28.8192 0.189746 26.7969 0.102346C24.7745 0.0149456 24.1236 -0.0074744 18.9636 0.0024056C13.8035 0.0122856 13.1575 0.0343256 11.131 0.133126ZM11.3529 34.4806C9.50041 34.4 8.49455 34.0922 7.82423 33.8346C6.93655 33.4926 6.30423 33.0791 5.63619 32.4175C4.96815 31.756 4.55775 31.1214 4.21119 30.2356C3.95089 29.5653 3.63739 28.5605 3.55075 26.708C3.45651 24.7058 3.43675 24.1047 3.42573 19.032C3.41471 13.9594 3.43409 13.359 3.52187 11.356C3.60091 9.50507 3.91061 8.49807 4.16787 7.82813C4.50987 6.93931 4.92179 6.30813 5.58489 5.64047C6.24799 4.97281 6.88069 4.56165 7.76723 4.21509C8.43679 3.95365 9.44151 3.64281 11.2933 3.55465C13.297 3.45965 13.8974 3.44065 18.9693 3.42963C24.0411 3.41861 24.643 3.43761 26.6475 3.52577C28.4985 3.60633 29.5059 3.91299 30.1751 4.17177C31.0631 4.51377 31.6951 4.92455 32.3627 5.58879C33.0304 6.25303 33.4419 6.88345 33.7885 7.77189C34.0503 8.43955 34.3611 9.44389 34.4485 11.2968C34.5439 13.3005 34.5656 13.9013 34.5747 18.9728C34.5838 24.0442 34.566 24.6465 34.4782 26.6488C34.3973 28.5013 34.0902 29.5075 33.8322 30.1786C33.4902 31.0659 33.0779 31.6986 32.4144 32.3659C31.7509 33.0331 31.119 33.4443 30.2321 33.7909C29.5633 34.0519 28.5574 34.3635 26.7072 34.4517C24.7034 34.5459 24.1031 34.5657 19.0293 34.5767C13.9555 34.5877 13.357 34.5672 11.3533 34.4806M26.8421 8.84539C26.8428 9.29636 26.9773 9.73698 27.2285 10.1115C27.4797 10.4861 27.8363 10.7777 28.2533 10.9496C28.6702 11.1214 29.1287 11.1657 29.5709 11.077C30.013 10.9882 30.4189 10.7703 30.7372 10.4508C31.0555 10.1314 31.272 9.72467 31.3591 9.28219C31.4463 8.83972 31.4002 8.38134 31.2269 7.96503C31.0535 7.54871 30.7605 7.19317 30.3851 6.94335C30.0096 6.69354 29.5685 6.56068 29.1175 6.56159C28.513 6.56279 27.9336 6.80406 27.5069 7.23234C27.0802 7.66061 26.8411 8.24082 26.8421 8.84539ZM9.24429 19.0191C9.25493 24.4075 13.631 28.7657 19.0183 28.7555C24.4055 28.7452 28.7668 24.3695 28.7565 18.9811C28.7463 13.5927 24.3691 9.23337 18.981 9.24401C13.593 9.25465 9.23403 13.6315 9.24429 19.0191ZM12.6666 19.0123C12.6641 17.7596 13.0331 16.5344 13.727 15.4915C14.4209 14.4486 15.4084 13.6349 16.5647 13.1532C17.7211 12.6716 18.9943 12.5436 20.2233 12.7856C21.4524 13.0275 22.5821 13.6285 23.4696 14.5125C24.3571 15.3965 24.9625 16.5238 25.2093 17.7519C25.4561 18.9799 25.3332 20.2536 24.8562 21.4119C24.3791 22.5701 23.5693 23.5609 22.5291 24.2589C21.489 24.9568 20.2652 25.3307 19.0126 25.3332C18.1808 25.335 17.3569 25.1728 16.5878 24.8561C15.8187 24.5394 15.1195 24.0742 14.5302 23.4873C13.9409 22.9003 13.473 22.203 13.1533 21.4352C12.8335 20.6673 12.6681 19.844 12.6666 19.0123Z" fill="white"/>
</g>
<defs>
<clipPath id="clip0_729_151">
<rect width="38" height="38" fill="white"/>
</clipPath>
</defs>
</svg>
